<?xml version="1.0" encoding="utf-8"?>
<!-- Generator: Moho 13.5.1 build 20210623 -->
<!DOCTYPE svg PUBLIC "-//W3C//DTD SVG 1.1//EN" "http://www.w3.org/Graphics/SVG/1.1/DTD/svg11.dtd">
<svg version="1.1" id="Frame_0" xmlns="http://www.w3.org/2000/svg" xmlns:xlink="http://www.w3.org/1999/xlink" width="1920px" height="1082px">
<g id="boy_2">
<path fill="#000000" fill-rule="evenodd" fill-opacity="0.196078" stroke="none" d="M 973.346 1064.795 C 1047.821 1064.607 1049.113 1057.596 1049.113 1056.021 C 1049.113 1054.446 1047.935 1045.933 971.177 1046.043 C 895.856 1046.151 894.686 1054.446 894.686 1056.021 C 894.686 1057.596 896.026 1064.990 973.346 1064.795 Z"/>
<path fill="#000000" fill-rule="evenodd" stroke="none" d="M 1059.693 515.373 C 1044.686 478.770 1029.351 442.304 1014.245 405.755 C 1010.008 396.687 999.250 392.755 990.180 396.988 C 981.111 401.220 977.188 411.979 981.413 421.052 C 999.678 456.140 1017.644 491.384 1036.098 526.374 C 1039.143 532.847 1046.883 535.484 1053.334 532.456 C 1059.794 529.438 1062.679 521.818 1059.693 515.373 Z"/>
<path fill="#fdb686" fill-rule="evenodd" stroke="none" d="M 1108.902 628.120 C 1108.902 628.120 1088.828 587.579 1085.593 580.021 C 1078.821 564.240 1060.108 516.172 1060.108 516.172 C 1052.201 519.815 1044.247 523.453 1036.333 527.177 C 1036.333 527.177 1055.391 559.623 1069.540 587.518 C 1075.447 599.166 1087.951 629.631 1091.216 636.373 C 1093.574 641.209 1099.288 643.356 1104.155 641.089 C 1109.083 638.791 1111.199 632.987 1108.902 628.120 Z"/>
<path fill="#ffffff" fill-rule="evenodd" stroke="none" d="M 1098.200 604.357 C 1092.153 607.169 1086.107 609.980 1080.061 612.822 C 1081.935 617.599 1083.809 622.285 1085.533 626.275 C 1091.972 623.252 1098.381 620.259 1104.820 617.296 C 1102.916 613.427 1100.588 608.892 1098.200 604.357 Z"/>
<path fill="#000000" fill-rule="evenodd" stroke="none" d="M 1102.553 609.708 C 1096.386 597.162 1090.067 584.072 1087.649 579.084 C 1079.033 561.247 1060.108 516.172 1060.108 516.172 C 1057.115 509.732 1049.505 507.065 1043.057 509.974 C 1036.468 512.933 1033.377 520.623 1036.361 527.170 C 1036.361 527.170 1054.034 559.530 1067.515 588.455 C 1071.474 596.906 1076.010 607.652 1081.209 619.654 C 1088.314 616.329 1095.448 613.003 1102.553 609.708 Z"/>
<g id="hand_right">
<path fill="#edad82" fill-rule="evenodd" stroke="none" d="M 1101.787 635.807 C 1097.960 630.274 1092.945 625.406 1096.365 622.564 C 1099.095 620.293 1104.280 621.613 1109.397 628.994 C 1119.155 643.118 1126.151 648.234 1127.608 654.203 C 1129.670 662.727 1132.771 668.440 1134.948 675.054 C 1136.748 680.636 1138.790 685.062 1140.214 688.003 C 1142.751 693.296 1140.380 694.761 1138.447 693.699 C 1136.514 692.637 1133.729 687.134 1129.617 678.809 C 1125.505 670.484 1119.532 659.621 1113.056 650.326 C 1107.941 643.013 1103.736 638.640 1101.787 635.807 Z"/>
<path fill="#f5b082" fill-rule="evenodd" stroke="none" d="M 1099.485 637.918 C 1095.540 631.970 1092.158 626.954 1095.368 623.264 C 1098.591 619.602 1104.417 621.677 1109.670 629.636 C 1119.725 644.835 1125.525 651.442 1126.831 657.834 C 1128.719 666.997 1131.857 673.101 1133.924 680.218 C 1135.667 686.207 1137.691 690.986 1139.093 694.143 C 1141.640 699.842 1138.985 701.354 1136.915 700.228 C 1134.846 699.102 1132.063 693.152 1127.936 684.219 C 1123.810 675.286 1117.776 663.600 1111.080 653.566 C 1105.870 645.687 1101.521 640.979 1099.485 637.918 Z"/>
<path fill="#fdb686" fill-rule="evenodd" stroke="none" d="M 1095.486 639.734 C 1091.625 633.945 1092.130 626.900 1095.368 623.264 C 1098.606 619.628 1106.038 622.151 1110.109 630.464 C 1118.779 648.212 1121.228 652.696 1122.463 658.955 C 1124.238 667.905 1127.305 673.875 1129.287 680.832 C 1130.959 686.688 1132.926 691.359 1134.286 694.437 C 1136.747 699.975 1134.107 701.514 1132.052 700.414 C 1129.996 699.315 1127.298 693.526 1123.312 684.792 C 1119.325 676.058 1113.421 664.680 1106.880 654.940 C 1101.757 647.289 1097.479 642.714 1095.486 639.734 Z"/>
<path fill="#eba67a" fill-rule="evenodd" stroke="none" d="M 1107.722 648.983 C 1107.599 651.136 1107.113 653.379 1107.638 656.044 C 1107.398 655.658 1107.146 655.312 1106.907 654.926 C 1101.770 647.248 1097.466 642.688 1095.513 639.719 C 1093.857 637.244 1101.169 623.231 1107.446 634.924 C 1110.763 641.172 1108.053 643.159 1107.722 648.983 Z"/>
<path fill="#fdb686" fill-rule="evenodd" stroke="none" d="M 1106.136 634.456 C 1104.933 626.195 1101.886 622.713 1097.848 623.488 C 1091.387 624.728 1091.752 637.986 1092.742 640.883 C 1094.536 646.194 1097.316 652.591 1097.220 656.407 C 1097.136 660.182 1096.791 669.847 1100.596 670.051 C 1103.670 670.233 1104.384 667.322 1103.885 659.098 C 1103.048 644.242 1107.553 644.280 1106.136 634.456 Z"/>
</g>
<g id="right_leg">
<path fill="#4f4f4f" fill-rule="evenodd" stroke="none" d="M 980.956 619.790 C 966.035 621.257 956.688 634.154 958.251 648.330 C 958.638 650.672 969.048 710.725 973.031 731.536 C 975.711 745.540 986.058 799.791 990.649 826.659 C 992.206 835.908 993.122 841.906 993.122 841.906 C 993.140 842.061 993.122 842.189 993.140 842.344 C 993.932 849.357 1000.250 854.396 1007.264 853.606 C 1014.277 852.815 1019.316 846.496 1018.526 839.482 C 1018.526 839.482 1018.195 834.336 1017.535 826.236 C 1015.343 799.942 1010.516 742.054 1010.050 727.331 C 1009.362 706.183 1009.581 643.825 1009.459 642.828 C 1007.720 628.652 997.101 618.203 980.956 619.790 Z"/>
<path fill="#ffb888" fill-rule="evenodd" stroke="none" d="M 975.496 1012.451 C 974.121 1019.155 973.161 1025.406 970.303 1034.387 C 969.194 1037.499 968.354 1039.341 969.242 1041.380 C 973.174 1050.407 1003.415 1047.118 1003.842 1036.730 C 1003.977 1033.438 997.376 1031.965 995.485 1030.211 C 989.399 1024.566 996.291 1012.291 994.383 1003.989 C 988.199 1000.505 976.065 1007.037 975.496 1012.451 Z"/>
<path fill="#191919" fill-rule="evenodd" stroke="none" d="M 1039.115 1048.836 C 1039.115 1048.742 1038.553 1048.242 1037.740 1048.586 C 1036.648 1039.435 1036.679 1036.000 1031.339 1034.470 C 1024.468 1032.533 1016.255 1033.689 1011.508 1033.564 C 1011.039 1033.564 1010.539 1033.814 1010.008 1034.407 C 1009.290 1034.314 1008.603 1034.220 1007.916 1034.126 C 1004.449 1033.657 1001.120 1031.599 997.354 1031.076 C 995.215 1041.998 975.094 1039.818 968.441 1039.717 C 967.847 1041.465 967.504 1044.776 967.473 1047.555 C 966.411 1047.556 965.818 1047.618 965.786 1047.743 C 965.474 1049.086 966.004 1052.686 966.567 1052.740 C 979.771 1052.531 994.310 1052.740 1006.200 1052.740 C 1015.850 1052.740 1027.650 1052.540 1038.365 1052.740 C 1038.958 1052.782 1039.302 1050.741 1039.115 1048.836 Z"/>
<path fill="#ffffff" fill-rule="evenodd" fill-opacity="0.101961" stroke="none" d="M 1032.900 1036.531 C 1031.963 1036.062 1030.620 1035.594 1029.059 1035.313 C 1027.497 1035.032 1026.060 1035.032 1024.999 1035.188 C 1023.968 1035.344 1023.343 1035.625 1023.343 1035.907 C 1023.343 1036.188 1023.968 1036.375 1024.936 1036.593 C 1025.904 1036.781 1027.216 1037.000 1028.684 1037.249 C 1031.588 1037.749 1033.993 1038.218 1034.212 1037.687 C 1034.337 1037.468 1033.837 1036.999 1032.900 1036.531 Z"/>
<path fill="#ffffff" fill-rule="evenodd" fill-opacity="0.200000" stroke="none" d="M 1006.573 1047.587 C 1006.635 1046.806 1006.729 1045.994 1006.854 1045.151 C 1007.260 1042.527 1007.822 1040.154 1008.322 1038.467 C 1008.790 1036.781 1009.134 1035.750 1009.071 1035.719 C 1009.009 1035.688 1008.540 1036.687 1007.978 1038.342 C 1007.416 1040.029 1006.792 1042.371 1006.385 1045.026 C 1006.260 1045.869 1006.167 1046.712 1006.104 1047.524 C 1004.668 1047.493 1003.200 1047.493 1001.701 1047.462 C 983.712 1047.243 969.128 1047.274 969.128 1047.555 C 969.128 1047.836 983.713 1048.211 1001.670 1048.461 C 1003.138 1048.492 1004.605 1048.492 1006.042 1048.523 C 1006.198 1048.523 1006.354 1048.523 1006.510 1048.523 C 1022.219 1048.679 1034.243 1048.617 1034.243 1048.399 C 1034.243 1048.180 1022.219 1047.835 1006.573 1047.587 Z"/>
<path fill="#4f4f4f" fill-rule="evenodd" stroke="none" d="M 1007.157 828.841 C 999.174 827.893 992.939 834.034 992.641 840.392 C 988.920 920.502 969.015 997.829 963.904 1023.342 C 962.986 1027.952 975.707 1032.891 981.578 1033.557 C 987.449 1034.224 1001.032 1032.246 1001.092 1027.563 C 1001.444 1003.332 1001.176 932.635 1018.496 843.447 C 1019.745 837.192 1015.083 829.784 1007.157 828.841 Z"/>
</g>
<g id="left_leg">
<path fill="#4f4f4f" fill-rule="evenodd" stroke="none" d="M 925.571 620.173 C 906.377 620.305 898.918 634.887 899.537 646.630 C 899.715 650.003 905.467 715.793 907.280 738.948 C 908.358 752.477 911.103 804.979 912.435 830.888 C 912.880 839.772 913.195 845.516 913.195 845.516 C 913.194 845.664 913.161 845.783 913.163 845.931 C 913.229 852.854 919.176 858.042 926.100 858.042 C 933.024 858.042 938.927 852.854 939.036 845.931 C 939.036 845.931 939.222 841.044 939.511 833.346 C 940.503 808.204 943.904 752.926 944.951 738.918 C 946.663 715.743 951.829 653.693 951.707 646.360 C 951.479 632.596 942.883 620.055 925.571 620.173 Z"/>
<path fill="#ffb888" fill-rule="evenodd" stroke="none" d="M 912.022 1018.804 C 911.086 1025.526 913.128 1031.416 910.056 1041.071 C 908.864 1044.415 907.961 1046.396 908.915 1048.587 C 913.142 1058.291 945.651 1054.756 946.109 1043.589 C 946.255 1040.050 939.159 1038.466 937.126 1036.581 C 930.584 1030.513 935.186 1016.260 931.339 1007.407 C 925.282 1005.338 912.308 1011.776 912.022 1018.804 Z"/>
<path fill="#191919" fill-rule="evenodd" stroke="none" d="M 984.078 1055.193 C 984.078 1055.092 983.473 1054.555 982.600 1054.924 C 981.426 1045.088 981.459 1041.395 975.718 1039.750 C 968.332 1037.668 959.503 1038.911 954.400 1038.776 C 953.896 1038.776 953.359 1039.045 952.788 1039.683 C 952.016 1039.582 951.278 1039.481 950.539 1039.380 C 946.813 1038.877 944.953 1039.021 942.023 1038.619 C 933.018 1050.226 911.684 1043.314 910.356 1039.823 C 908.772 1042.787 907.097 1050.829 907.064 1053.817 C 905.922 1053.817 905.284 1053.884 905.251 1054.018 C 904.915 1055.462 905.484 1059.332 906.090 1059.390 C 920.284 1059.165 935.913 1059.390 948.695 1059.390 C 959.068 1059.390 971.753 1059.175 983.272 1059.390 C 983.909 1059.435 984.279 1057.241 984.078 1055.193 Z"/>
<path fill="#ffffff" fill-rule="evenodd" fill-opacity="0.101961" stroke="none" d="M 977.397 1041.966 C 976.390 1041.462 974.946 1040.958 973.267 1040.656 C 971.589 1040.354 970.044 1040.354 968.903 1040.522 C 967.795 1040.690 967.123 1040.992 967.123 1041.294 C 967.123 1041.596 967.795 1041.798 968.836 1042.033 C 969.877 1042.234 971.286 1042.469 972.864 1042.738 C 975.987 1043.275 978.572 1043.779 978.807 1043.208 C 978.941 1042.973 978.404 1042.469 977.397 1041.966 Z"/>
<path fill="#ffffff" fill-rule="evenodd" fill-opacity="0.200000" stroke="none" d="M 949.096 1053.850 C 949.163 1053.011 949.263 1052.138 949.398 1051.231 C 949.834 1048.411 950.439 1045.860 950.976 1044.047 C 951.479 1042.234 951.849 1041.126 951.781 1041.093 C 951.714 1041.059 951.211 1042.133 950.606 1043.912 C 950.002 1045.725 949.331 1048.244 948.894 1051.097 C 948.760 1052.004 948.659 1052.910 948.592 1053.783 C 947.048 1053.749 945.470 1053.750 943.859 1053.716 C 924.521 1053.481 908.843 1053.514 908.843 1053.817 C 908.843 1054.119 924.521 1054.522 943.825 1054.790 C 945.403 1054.824 946.980 1054.824 948.525 1054.857 C 948.693 1054.857 948.860 1054.857 949.028 1054.857 C 965.915 1055.025 978.840 1054.958 978.840 1054.723 C 978.840 1054.488 965.915 1054.117 949.096 1053.850 Z"/>
<path fill="#4f4f4f" fill-rule="evenodd" stroke="none" d="M 925.922 832.118 C 917.780 832.118 912.185 838.970 912.633 845.400 C 918.331 926.492 908.777 1007.045 906.655 1033.385 C 906.278 1038.131 919.624 1041.647 925.608 1041.647 C 931.592 1041.647 945.053 1038.103 944.561 1033.385 C 942.047 1008.876 932.754 937.391 939.180 845.438 C 939.665 838.973 934.035 832.118 925.922 832.118 Z"/>
</g>
<path fill="#4f4f4f" fill-rule="evenodd" stroke="none" d="M 1004.925 602.723 C 1007.374 619.320 1010.155 636.129 1009.490 646.075 C 1008.280 663.640 992.893 676.578 970.914 669.081 C 962.540 666.209 945.731 665.877 937.206 669.686 C 920.367 677.244 901.351 667.570 899.809 646.075 C 899.174 637.066 901.442 622.071 904.314 605.594 C 907.246 588.635 935.815 582.014 955.315 582.679 C 970.340 583.163 995.190 581.319 1004.925 602.723 Z"/>
<path fill="#eda87a" fill-rule="evenodd" stroke="none" d="M 952.201 363.379 C 951.203 359.600 950.508 355.216 950.175 350.046 C 949.117 333.600 942.043 327.100 932.762 327.161 C 924.206 327.221 921.183 336.412 921.607 351.860 C 921.788 358.299 921.425 363.892 920.760 368.638 C 930.071 363.409 941.408 362.683 952.201 363.379 Z"/>
<path fill="#ffb888" fill-rule="evenodd" stroke="none" d="M 961.724 475.629 C 987.904 441.860 972.003 389.226 969.735 385.206 C 965.261 383.754 957.370 383.089 952.201 363.379 C 941.408 362.713 929.950 362.955 920.760 368.638 C 919.127 380.066 914.048 383.967 910.179 385.690 C 909.544 385.962 908.939 386.233 908.335 386.505 C 909.272 389.801 958.277 474.450 961.724 475.629 Z"/>
<path fill="#ffffff" fill-rule="evenodd" stroke="none" d="M 1008.522 435.330 C 1008.825 418.793 1008.311 405.219 1006.467 397.419 C 998.909 393.640 983.369 389.621 971.579 385.780 C 970.975 385.599 970.400 385.387 969.826 385.206 C 968.768 384.843 967.498 384.571 966.138 384.027 C 968.375 391.282 965.231 408.575 953.047 410.359 C 938.294 412.505 918.705 399.505 911.327 385.085 C 910.904 385.296 910.511 385.508 910.118 385.690 C 908.425 386.445 906.823 387.171 905.251 387.866 C 893.067 393.277 884.542 397.177 876.198 401.561 C 875.805 415.407 877.166 428.588 879.584 441.467 C 886.054 475.961 899.930 508.248 906.430 545.403 C 909.393 562.424 907.549 582.165 905.039 600.243 C 904.797 602.027 904.525 603.841 904.283 605.594 C 922.664 607.771 940.169 614.483 959.789 614.483 C 972.909 614.483 995.976 610.553 1004.925 602.723 C 1004.713 601.120 1004.501 599.458 1004.290 597.795 C 1002.083 580.140 1000.420 559.491 1002.234 536.908 C 1004.865 504.228 1008.008 464.987 1008.522 435.330 Z"/>
<path fill="#000000" fill-rule="evenodd" fill-opacity="0.200000" stroke="none" d="M 952.654 423.933 C 953.682 431.128 954.740 438.353 955.647 445.578 C 956.131 449.176 956.524 452.804 956.917 456.432 C 957.340 460.059 957.733 463.657 958.066 467.285 C 959.517 481.766 960.575 496.307 961.361 510.849 C 962.056 525.390 962.510 539.962 962.570 554.503 C 962.570 561.789 962.570 569.075 962.419 576.330 C 962.268 583.616 962.026 590.872 961.784 598.158 C 961.875 590.872 961.905 583.616 961.875 576.330 C 961.875 569.045 961.814 561.789 961.693 554.503 C 961.451 539.962 961.028 525.420 960.242 510.879 C 959.547 496.338 958.489 481.826 957.219 467.345 C 956.917 463.717 956.584 460.090 956.221 456.492 C 955.889 452.864 955.526 449.236 955.103 445.639 C 954.407 438.383 953.531 431.158 952.654 423.933 Z"/>
<path fill="#000000" fill-rule="evenodd" fill-opacity="0.200000" stroke="none" d="M 959.033 423.933 C 960.061 431.128 961.119 438.353 962.026 445.578 C 962.510 449.176 962.903 452.804 963.296 456.432 C 963.719 460.059 964.112 463.657 964.445 467.285 C 965.896 481.766 966.954 496.307 967.740 510.849 C 968.435 525.390 968.889 539.962 968.949 554.503 C 968.949 561.789 968.949 569.075 968.798 576.330 C 968.647 583.616 968.405 590.872 968.163 598.158 C 968.223 590.872 968.284 583.616 968.254 576.330 C 968.284 569.045 968.193 561.789 968.072 554.503 C 967.830 539.962 967.407 525.420 966.621 510.879 C 965.926 496.338 964.868 481.826 963.598 467.345 C 963.296 463.717 962.963 460.090 962.600 456.492 C 962.268 452.864 961.905 449.236 961.482 445.639 C 960.756 438.383 959.910 431.158 959.033 423.933 Z"/>
<path fill="#d2d2d2" fill-rule="evenodd" stroke="none" d="M 967.256 420.909 C 965.352 417.614 963.205 416.042 961.694 417.100 C 959.184 418.884 951.687 460.422 951.384 457.913 C 948.029 430.493 947.666 426.623 946.366 423.933 C 945.641 422.391 944.612 420.244 943.675 422.905 C 928.348 417.131 910.542 402.438 908.304 394.578 C 933.034 397.964 956.131 391.282 956.131 391.282 C 961.784 391.796 967.438 392.340 973.091 392.854 C 973.091 392.854 973.121 411.568 967.256 420.909 Z"/>
<path fill="#d2d2d2" fill-rule="evenodd" stroke="none" d="M 953.954 369.092 C 957.250 369.878 959.517 370.664 962.026 372.418 C 963.387 373.355 968.345 384.903 966.349 384.147 C 964.354 383.392 961.089 381.910 958.338 377.860 C 955.557 373.809 954.075 369.395 953.954 369.092 Z"/>
<path fill="#d2d2d2" fill-rule="evenodd" stroke="none" d="M 920.609 369.515 C 920.609 369.515 918.583 370.029 917.646 370.453 C 916.165 371.420 915.469 372.962 915.469 374.262 C 915.499 376.650 917.736 378.555 918.039 377.950 C 919.883 374.413 920.609 369.515 920.609 369.515 Z"/>
<path fill="#b50000" fill-rule="evenodd" stroke="none" d="M 966.893 591.930 C 961.361 586.186 955.828 580.442 950.296 574.728 C 956.433 484.093 948.664 416.646 948.664 416.646 C 952.594 416.465 956.524 416.314 960.485 416.163 C 960.485 416.163 973.363 476.324 979.712 574.426 C 975.419 580.260 971.156 586.095 966.893 591.930 Z"/>
<path fill="#b50000" fill-rule="evenodd" stroke="none" d="M 957.128 390.919 C 953.198 391.161 943.494 397.087 942.526 402.468 C 941.589 407.849 945.792 417.161 948.573 418.461 C 952.382 420.244 959.577 418.823 961.089 417.795 C 962.510 416.858 969.070 402.256 966.319 398.175 C 963.598 394.094 960.756 390.708 957.128 390.919 Z"/>
<path fill="#ffffff" fill-rule="evenodd" stroke="none" d="M 957.128 391.736 C 960.696 392.431 961.603 395.394 962.963 401.017 C 963.991 405.189 967.377 417.130 967.256 418.430 C 969.674 415.014 974.270 397.450 972.788 390.164 C 971.760 385.145 969.463 381.487 967.256 377.920 C 965.684 375.350 964.807 374.504 962.026 372.388 C 965.835 377.074 964.535 381.457 961.572 385.720 C 960.182 387.715 957.582 389.438 954.891 390.919 C 954.559 392.008 956.161 391.554 957.128 391.736 Z"/>
<path fill="#ffffff" fill-rule="evenodd" stroke="none" d="M 942.406 420.244 C 947.727 401.380 948.089 394.425 954.891 392.008 C 956.554 391.403 956.645 390.527 955.980 390.526 C 952.050 390.526 946.638 389.529 943.282 388.561 C 940.078 387.624 927.108 385.054 917.585 377.557 C 914.593 375.199 915.832 371.722 917.706 370.453 C 915.832 371.420 914.472 374.413 912.718 377.950 C 911.418 380.550 906.793 385.115 906.793 387.261 C 905.100 392.764 912.960 401.621 919.309 406.519 C 927.653 412.988 936.692 417.312 942.406 420.244 Z"/>
<path fill="#000000" fill-rule="evenodd" stroke="none" d="M 1006.588 397.359 C 1008.432 405.159 1008.976 418.823 1008.673 435.360 C 1008.129 465.017 1010.457 481.826 1007.797 514.476 C 1005.802 539.206 1015.808 603.448 1018.317 622.162 C 1010.820 628.722 982.946 645.289 969.070 636.945 C 964.535 634.224 961.845 626.333 960.605 622.434 C 959.456 627.120 954.619 637.459 947.212 639.968 C 929.497 646.014 897.723 632.380 890.438 627.089 C 893.310 607.650 900.535 567.231 898.660 548.336 C 894.519 506.525 885.752 476.052 879.282 441.557 C 876.863 428.679 875.775 415.377 876.198 401.531 C 881.852 398.568 892.795 393.006 900.898 388.168 C 906.279 384.964 910.239 381.245 910.390 381.155 C 906.188 386.808 910.662 394.819 925.083 418.672 C 940.199 443.704 957.854 484.093 963.507 500.479 C 972.305 462.840 975.691 432.065 975.449 412.293 C 975.268 396.784 973.937 390.164 970.219 383.120 C 970.612 382.485 972.728 384.208 979.167 386.838 C 988.751 390.708 1001.872 395.001 1006.588 397.359 Z"/>
<path fill="#4f4f4f" fill-rule="evenodd" stroke="none" d="M 989.235 410.207 C 987.360 411.870 986.272 412.293 983.763 413.532 C 987.995 416.404 990.202 418.158 993.890 421.060 C 989.416 440.802 976.961 482.008 960.787 510.304 C 961.905 506.828 962.329 505.528 962.994 502.505 C 946.880 479.135 930.253 452.592 908.304 430.765 C 912.204 426.472 915.227 422.844 917.797 420.275 C 914.623 420.033 912.144 421.544 909.090 421.030 C 903.830 409.693 901.381 398.145 900.928 388.199 C 906.309 384.994 910.269 381.276 910.420 381.185 C 906.218 386.838 910.693 394.850 925.113 418.702 C 940.229 443.734 957.884 484.124 963.538 500.509 C 972.335 462.871 975.721 432.095 975.479 412.323 C 975.298 396.814 973.967 390.194 970.249 383.150 C 970.642 382.515 972.758 384.238 979.198 386.869 C 983.762 393.338 987.118 402.014 989.235 410.207 Z"/>
<path fill="#4f4f4f" fill-rule="evenodd" stroke="none" d="M 958.942 515.323 C 957.824 518.830 956.796 522.337 956.584 525.934 C 956.464 527.718 956.615 529.532 956.705 531.346 C 956.766 533.160 956.856 535.004 956.947 536.818 C 957.279 544.134 957.733 551.450 958.066 558.766 C 958.368 566.082 958.670 573.398 958.973 580.714 C 959.275 588.030 959.517 595.346 959.698 602.693 C 958.761 588.060 957.824 573.428 956.887 558.826 C 956.463 551.510 956.070 544.194 955.677 536.878 C 955.556 535.064 955.496 533.220 955.405 531.376 C 955.375 529.562 955.285 527.688 955.526 525.813 C 956.010 522.125 957.310 518.618 958.942 515.323 Z"/>
<path fill="#4f4f4f" fill-rule="evenodd" stroke="none" d="M 963.538 534.611 C 965.321 534.611 966.712 532.676 966.712 530.167 C 966.712 527.657 965.321 525.723 963.538 525.723 C 961.754 525.723 960.363 527.657 960.363 530.167 C 960.363 532.676 961.754 534.611 963.538 534.611 Z"/>
<path fill="#4f4f4f" fill-rule="evenodd" stroke="none" d="M 964.535 574.093 C 966.319 574.093 967.710 572.158 967.710 569.649 C 967.710 567.140 966.319 565.205 964.535 565.205 C 962.752 565.205 961.361 567.140 961.361 569.649 C 961.361 572.158 962.752 574.093 964.535 574.093 Z"/>
<path fill="#4f4f4f" fill-rule="evenodd" stroke="none" d="M 966.712 613.939 C 968.496 613.939 969.886 612.004 969.886 609.495 C 969.886 606.985 968.496 605.051 966.712 605.051 C 964.928 605.051 963.538 606.985 963.538 609.495 C 963.538 612.004 964.928 613.939 966.712 613.939 Z"/>
<g id="head">
<path fill="#ffb888" fill-rule="evenodd" stroke="none" d="M 967.316 359.177 C 976.998 357.303 998.453 338.628 998.360 317.454 C 998.297 307.772 995.549 292.751 994.861 279.009 C 992.894 242.782 1000.483 215.831 967.254 197.155 C 928.716 175.606 881.746 195.062 871.471 222.108 C 854.450 266.611 871.408 278.603 886.492 319.202 C 896.642 346.529 943.613 363.830 967.316 359.177 Z"/>
<path fill="#8bbdb8" fill-rule="evenodd" stroke="none" d="M 994.393 270.921 C 994.393 271.139 994.393 271.327 994.393 271.545 C 994.424 271.264 994.393 271.077 994.393 270.921 Z"/>
<path fill="#8bbdb8" fill-rule="evenodd" stroke="none" d="M 994.456 273.794 C 994.456 273.794 994.456 273.794 994.456 273.794 C 994.456 274.044 994.456 274.700 994.456 274.481 C 994.456 274.668 994.487 274.044 994.456 273.794 Z"/>
<path fill="#8bbdb8" fill-rule="evenodd" stroke="none" d="M 994.424 271.514 C 994.424 271.514 994.424 271.514 994.424 271.514 C 994.424 272.295 994.549 274.543 994.456 273.794 C 994.518 274.543 994.424 272.108 994.424 271.514 Z"/>
<g id="right_eye">
<g id="eye">
<clipPath id="d2192e2f-2423-4acc-b88c-7589814f8b4b">
<path fill="#ffffff" fill-rule="evenodd" stroke="none" d="M 979.809 259.615 C 971.876 259.615 966.286 267.142 966.286 275.418 C 966.286 283.694 971.876 291.220 979.809 291.220 C 987.741 291.220 993.332 283.694 993.332 275.418 C 993.363 267.142 987.772 259.615 979.809 259.615 Z"/>
</clipPath>
<path fill="#ffffff" fill-rule="evenodd" stroke="#000000" stroke-width="0" stroke-linecap="round" stroke-linejoin="round" d="M 979.809 259.615 C 971.876 259.615 966.286 267.142 966.286 275.418 C 966.286 283.694 971.876 291.220 979.809 291.220 C 987.741 291.220 993.332 283.694 993.332 275.418 C 993.363 267.142 987.772 259.615 979.809 259.615 Z"/>
<path fill="#6d3409" fill-rule="evenodd" stroke="none" d="M 979.215 272.732 C 981.058 272.732 982.525 274.200 982.526 276.042 C 982.526 277.885 981.058 279.353 979.215 279.353 C 977.372 279.353 975.905 277.885 975.905 276.042 C 975.905 274.200 977.373 272.732 979.215 272.732 Z" clip-path="url(#d2192e2f-2423-4acc-b88c-7589814f8b4b)"/>
<path fill="#ffb888" fill-rule="evenodd" stroke="none" d="M 960.278 247.998 C 960.282 247.998 993.026 248.272 993.029 248.272 C 993.029 248.273 993.029 258.412 993.029 258.413 C 993.026 258.413 960.282 258.139 960.278 258.139 C 960.278 258.138 960.278 247.999 960.278 247.998 Z" clip-path="url(#d2192e2f-2423-4acc-b88c-7589814f8b4b)"/>
<path fill="#ffb888" fill-rule="evenodd" stroke="none" d="M 994.124 303.089 C 994.120 303.089 960.282 302.952 960.278 302.952 C 960.278 302.951 960.278 292.812 960.278 292.811 C 960.282 292.811 994.120 292.948 994.124 292.948 C 994.124 292.949 994.124 303.088 994.124 303.089 Z" clip-path="url(#d2192e2f-2423-4acc-b88c-7589814f8b4b)"/>
</g>
</g>
<g id="mouth">
<g id="mouth">
<path fill="#ffffff" fill-rule="evenodd" stroke="none" d="M 955.349 319.882 C 947.849 320.054 940.346 319.442 934.507 317.912 C 934.438 317.912 934.369 317.911 934.403 318.015 C 935.991 319.159 937.790 320.504 939.519 322.094 C 940.970 323.407 942.353 325.550 943.978 326.380 C 945.879 327.347 948.713 327.935 951.443 328.315 C 951.603 328.337 951.776 328.360 951.962 328.384 C 956.213 328.903 961.121 328.627 964.854 328.868 C 961.328 329.111 957.319 329.422 953.482 329.352 C 951.305 329.318 949.197 329.145 947.296 328.765 C 949.992 331.115 954.071 333.257 958.564 334.571 C 958.574 334.581 958.597 334.593 958.633 334.606 C 963.230 335.955 969.175 335.608 973.806 334.225 C 973.564 332.255 973.737 329.801 973.840 327.797 C 973.080 327.762 971.974 328.315 971.422 327.797 C 973.011 327.451 974.221 326.725 975.362 325.965 C 975.604 323.718 976.226 321.368 976.502 319.260 C 976.537 318.949 976.571 318.638 976.606 318.326 C 970.557 320.228 962.850 319.709 955.349 319.882 Z"/>
<path fill="#6d3409" fill-rule="evenodd" stroke="none" d="M 985.385 316.667 C 985.246 314.594 983.968 313.695 983.138 312.381 C 983.138 313.384 983.761 314.283 983.657 315.009 C 977.746 316.944 970.730 317.773 963.230 318.085 C 962.089 318.119 960.983 318.015 959.842 318.085 C 948.747 318.534 937.860 317.602 928.390 315.976 C 929.115 315.700 929.772 315.389 930.359 315.009 C 929.080 315.043 927.836 315.319 926.868 315.769 C 925.970 316.183 924.691 316.633 924.553 317.843 C 925.693 317.601 926.419 316.875 927.491 316.529 C 934.300 318.845 938.655 324.237 944.150 328.626 C 949.128 332.601 955.902 337.233 964.439 337.233 C 969.105 337.233 974.221 335.816 977.332 334.122 C 977.746 333.915 978.576 333.569 978.334 333.258 C 977.470 333.362 976.951 333.845 975.915 333.776 C 975.154 332.152 976.122 330.251 976.709 328.765 C 978.610 323.960 981.652 319.848 984.624 316.460 C 984.832 316.564 985.074 316.979 985.385 316.667 M 976.364 319.294 C 976.156 321.368 975.569 323.718 975.292 326.000 C 974.151 326.760 972.942 327.486 971.352 327.832 C 971.870 328.385 973.011 327.797 973.771 327.832 C 973.668 329.836 973.495 332.290 973.737 334.261 C 969.071 335.643 963.126 335.989 958.563 334.641 C 954.001 333.258 949.922 331.150 947.226 328.799 C 949.162 329.179 951.270 329.352 953.413 329.387 C 957.250 329.456 961.259 329.145 964.785 328.903 C 961.052 328.661 956.144 328.937 951.893 328.419 C 948.678 327.970 945.810 327.382 943.909 326.414 C 942.284 325.585 940.901 323.476 939.450 322.128 C 937.721 320.539 935.924 319.225 934.334 318.050 C 940.314 319.466 947.780 320.089 955.280 319.916 C 962.780 319.743 970.488 320.262 976.467 318.361 C 976.433 318.672 976.398 318.983 976.364 319.294 M 934.334 318.050 C 934.300 317.946 934.369 317.946 934.438 317.946 M 951.893 328.419 C 951.707 328.394 951.534 328.371 951.374 328.350 M 958.563 334.641 C 958.527 334.627 958.504 334.616 958.494 334.606 Z"/>
<path fill="#6d3409" fill-rule="evenodd" stroke="none" d="M 975.119 340.966 C 973.080 345.252 963.057 343.662 958.391 342.728 C 964.439 343.247 971.006 343.039 975.119 340.966 Z"/>
</g>
</g>
<path fill="#6d3409" fill-rule="evenodd" stroke="none" d="M 956.589 300.506 C 957.748 299.532 959.163 298.883 960.577 298.373 C 961.991 297.840 963.475 297.468 964.982 297.237 C 965.747 297.121 966.489 297.028 967.254 296.982 C 968.019 296.935 968.784 296.935 969.572 296.982 C 970.360 297.028 971.125 297.121 971.913 297.306 C 972.702 297.492 973.420 297.700 974.232 298.094 C 975.067 298.558 975.646 299.184 976.133 299.856 C 976.620 300.529 976.991 301.294 977.223 302.105 C 977.686 303.728 977.362 305.629 976.295 306.927 C 975.252 308.226 973.815 308.991 972.377 309.478 C 970.940 309.988 969.433 310.220 967.949 310.312 C 969.386 309.918 970.801 309.431 972.099 308.805 C 973.374 308.156 974.603 307.321 975.298 306.209 C 976.040 305.119 976.133 303.774 975.716 302.546 C 975.507 301.943 975.205 301.340 974.788 300.854 C 974.394 300.343 973.884 299.902 973.398 299.671 C 972.864 299.416 972.169 299.207 971.496 299.092 C 970.824 298.953 970.128 298.882 969.410 298.813 C 968.714 298.766 967.995 298.743 967.277 298.767 C 966.558 298.767 965.839 298.790 965.121 298.859 C 963.683 298.975 962.246 299.161 960.785 299.416 C 959.417 299.648 957.980 299.949 956.589 300.506 Z"/>
<g id="left_eye">
<g id="eye_2">
<clipPath id="55aab9c4-054b-4a85-92fe-a79b0cbcba68">
<path fill="#ffffff" fill-rule="evenodd" stroke="none" d="M 931.464 261.271 C 922.844 261.271 915.818 268.516 915.818 277.479 C 915.818 286.442 922.844 293.687 931.464 293.687 C 940.083 293.687 947.110 286.442 947.110 277.479 C 947.110 268.516 940.083 261.271 931.464 261.271 Z"/>
</clipPath>
<path fill="#ffffff" fill-rule="evenodd" stroke="#000000" stroke-width="0" stroke-linecap="round" stroke-linejoin="round" d="M 931.464 261.271 C 922.844 261.271 915.818 268.516 915.818 277.479 C 915.818 286.442 922.844 293.687 931.464 293.687 C 940.083 293.687 947.110 286.442 947.110 277.479 C 947.110 268.516 940.083 261.271 931.464 261.271 Z"/>
<path fill="#6d3409" fill-rule="evenodd" stroke="none" d="M 931.183 275.480 C 933.025 275.480 934.494 276.948 934.494 278.791 C 934.494 280.633 933.026 282.101 931.183 282.101 C 929.340 282.101 927.872 280.633 927.872 278.791 C 927.872 276.979 929.340 275.480 931.183 275.480 Z" clip-path="url(#55aab9c4-054b-4a85-92fe-a79b0cbcba68)"/>
<path fill="#ffb888" fill-rule="evenodd" stroke="none" d="M 910.715 249.589 C 910.719 249.589 953.724 249.589 953.729 249.589 C 953.729 249.590 953.729 259.729 953.729 259.730 C 953.724 259.730 910.719 259.730 910.715 259.730 C 910.715 259.729 910.715 249.590 910.715 249.589 Z" clip-path="url(#55aab9c4-054b-4a85-92fe-a79b0cbcba68)"/>
<path fill="#ffb888" fill-rule="evenodd" stroke="none" d="M 953.729 304.542 C 953.724 304.542 910.719 304.542 910.715 304.542 C 910.715 304.541 910.715 294.402 910.715 294.401 C 910.719 294.401 953.724 294.401 953.729 294.401 C 953.729 294.402 953.729 304.541 953.729 304.542 Z" clip-path="url(#55aab9c4-054b-4a85-92fe-a79b0cbcba68)"/>
</g>
</g>
<path fill="#6d3409" fill-rule="evenodd" stroke="none" d="M 909.775 255.303 C 909.544 254.976 913.433 251.579 915.209 250.231 C 917.194 248.725 920.011 246.886 922.310 245.926 C 924.701 244.926 928.114 244.102 930.691 243.824 C 933.138 243.560 936.443 243.805 938.890 244.063 C 940.090 244.190 946.840 245.828 946.706 246.462 C 946.578 247.067 939.988 246.577 938.838 246.616 C 936.516 246.696 933.415 246.884 931.115 247.216 C 928.780 247.552 925.670 248.126 923.425 248.848 C 921.222 249.557 918.452 250.774 916.361 251.944 C 914.335 253.079 910.005 255.628 909.775 255.303 Z"/>
<path fill="#6d3409" fill-rule="evenodd" stroke="none" d="M 992.558 249.310 C 992.702 249.073 989.842 246.925 988.534 246.108 C 987.169 245.254 985.220 244.301 983.690 243.801 C 981.971 243.241 979.572 242.794 977.767 242.702 C 976.025 242.613 973.685 242.847 971.971 243.170 C 971.191 243.317 964.554 245.353 964.834 246.080 C 965.016 246.552 971.453 245.523 972.265 245.456 C 973.829 245.327 975.928 245.339 977.495 245.422 C 979.142 245.509 981.341 245.720 982.959 246.041 C 984.471 246.340 986.430 246.829 987.903 247.447 C 989.355 248.056 992.419 249.541 992.558 249.310 Z"/>
<g id="glasses">
</g>
<path fill="#6f4f39" fill-rule="evenodd" stroke="none" d="M 927.030 168.485 C 963.913 168.860 973.813 183.694 976.092 187.504 C 980.090 188.254 1011.507 198.622 994.456 264.862 C 994.643 255.430 992.769 223.638 981.152 212.052 C 981.620 217.205 979.246 221.296 977.529 223.170 C 979.809 218.610 980.777 212.333 979.059 207.960 C 977.154 214.050 969.815 224.700 954.887 232.413 C 964.974 224.887 973.156 217.298 976.311 206.805 C 968.972 216.705 957.854 227.167 934.931 232.413 C 912.008 237.660 911.414 238.504 907.917 239.940 C 902.670 243.844 895.955 248.591 892.489 253.557 C 874.375 279.540 895.268 306.523 869.691 291.626 C 855.481 283.381 849.484 266.955 847.954 260.396 C 845.487 249.684 845.019 221.764 854.325 206.555 C 863.663 191.346 890.115 168.111 927.030 168.485 M 913.882 236.224 C 917.879 234.818 933.338 231.602 945.986 226.824 C 950.109 225.262 953.638 223.388 956.604 221.390 C 949.484 225.824 931.246 230.384 921.408 232.664 C 918.473 234.038 916.068 235.224 913.882 236.224 M 925.187 230.915 C 931.464 229.478 939.053 227.417 945.892 224.762 C 962.913 218.141 964.412 215.924 968.691 210.022 C 962.132 216.767 942.395 224.013 937.086 226.012 C 932.307 227.823 928.435 229.447 925.187 230.915 Z"/>
<path fill="#ffffff" fill-rule="evenodd" fill-opacity="0.078431" stroke="none" d="M 935.243 188.316 C 935.274 188.348 934.119 189.285 931.932 190.752 C 929.746 192.251 926.467 194.250 922.220 196.280 C 917.973 198.342 912.726 200.371 906.948 202.745 C 901.202 205.118 894.956 207.960 888.554 211.240 C 882.152 214.487 876.280 218.048 871.533 222.045 C 869.160 224.044 867.099 226.137 865.381 228.292 C 863.663 230.446 862.258 232.601 861.165 234.662 C 860.040 236.723 859.166 238.660 858.417 240.378 C 857.667 242.095 857.073 243.594 856.574 244.812 C 855.574 247.248 855.012 248.591 854.950 248.591 C 854.919 248.560 855.387 247.186 856.324 244.718 C 856.793 243.469 857.355 241.970 858.073 240.221 C 858.791 238.472 859.635 236.536 860.759 234.412 C 861.852 232.320 863.226 230.103 864.975 227.917 C 866.693 225.731 868.785 223.576 871.190 221.546 C 875.968 217.454 881.902 213.894 888.304 210.615 C 894.706 207.336 900.983 204.494 906.761 202.152 C 912.539 199.778 917.786 197.811 922.064 195.812 C 926.342 193.845 929.622 191.908 931.839 190.503 C 934.025 189.129 935.212 188.285 935.243 188.316 Z"/>
<path fill="#ffffff" fill-rule="evenodd" fill-opacity="0.078431" stroke="none" d="M 880.559 208.366 C 880.684 208.523 876.249 211.302 871.565 215.612 C 869.222 217.767 867.255 219.890 865.974 221.514 C 864.662 223.138 864.038 224.263 863.944 224.232 C 863.850 224.200 864.350 222.982 865.568 221.233 C 866.786 219.484 868.723 217.298 871.096 215.112 C 875.875 210.740 880.496 208.210 880.559 208.366 Z"/>
<path fill="#ffffff" fill-rule="evenodd" fill-opacity="0.078431" stroke="none" d="M 962.070 182.508 C 962.101 182.508 962.101 183.663 961.258 185.506 C 960.415 187.317 958.791 189.784 956.324 192.345 C 953.856 194.937 950.515 197.623 946.455 200.090 C 942.395 202.526 937.648 204.681 932.588 206.618 C 927.498 208.554 922.564 210.116 918.067 211.458 C 913.569 212.832 909.478 213.988 906.074 214.987 C 902.670 215.986 899.922 216.861 898.048 217.517 C 896.174 218.141 895.143 218.548 895.112 218.485 C 895.081 218.454 896.080 217.954 897.954 217.267 C 899.797 216.549 902.545 215.612 905.918 214.550 C 909.322 213.488 913.382 212.270 917.848 210.865 C 922.345 209.459 927.248 207.898 932.307 205.962 C 937.367 204.025 942.083 201.933 946.111 199.528 C 950.140 197.124 953.450 194.500 955.949 192.002 C 958.447 189.503 960.102 187.130 961.008 185.381 C 961.914 183.601 962.008 182.476 962.070 182.508 Z"/>
<path fill="#ffffff" fill-rule="evenodd" fill-opacity="0.078431" stroke="none" d="M 857.605 266.361 C 857.511 266.330 857.979 264.706 859.010 261.801 C 860.072 258.928 861.696 254.775 864.288 249.934 C 866.911 245.093 870.534 239.534 875.812 234.443 C 878.435 231.914 881.496 229.509 884.869 227.417 C 888.242 225.324 891.989 223.513 895.893 221.952 C 899.797 220.421 903.701 219.172 907.479 218.017 C 911.258 216.861 914.912 215.831 918.378 214.831 C 925.312 212.801 931.527 210.834 936.555 208.772 C 941.614 206.742 945.518 204.681 948.110 203.057 C 950.702 201.465 952.013 200.403 952.107 200.496 C 952.170 200.559 950.952 201.745 948.422 203.526 C 945.892 205.274 942.020 207.523 936.960 209.678 C 931.901 211.864 925.686 213.957 918.753 216.049 C 915.131 217.142 911.508 218.235 907.885 219.328 C 904.138 220.484 900.265 221.733 896.393 223.232 C 892.551 224.762 888.897 226.511 885.587 228.541 C 882.276 230.571 879.278 232.882 876.686 235.350 C 871.471 240.284 867.817 245.687 865.131 250.402 C 862.445 255.149 860.696 259.209 859.478 262.020 C 858.323 264.799 857.698 266.392 857.605 266.361 Z"/>
<path fill="#ffffff" fill-rule="evenodd" fill-opacity="0.078431" stroke="none" d="M 995.330 242.314 C 995.236 242.314 995.268 239.597 994.956 235.224 C 994.643 230.852 993.925 224.825 992.114 218.360 C 991.208 215.143 990.115 212.145 988.928 209.522 C 987.741 206.899 986.461 204.619 985.211 202.808 C 983.994 200.996 982.807 199.684 981.901 198.841 C 981.027 197.998 980.433 197.623 980.464 197.592 C 980.496 197.561 981.120 197.842 982.057 198.654 C 983.025 199.435 984.275 200.746 985.586 202.526 C 986.898 204.306 988.241 206.586 989.459 209.241 C 990.708 211.895 991.801 214.925 992.738 218.173 C 994.580 224.669 995.237 230.790 995.424 235.193 C 995.611 239.597 995.392 242.314 995.330 242.314 Z"/>
<path fill="#ffb888" fill-rule="evenodd" stroke="none" d="M 851.608 291.720 C 852.170 302.432 869.160 315.361 877.686 314.924 C 886.180 314.487 888.085 305.992 884.869 295.811 C 881.558 285.318 875.468 276.480 867.099 275.262 C 854.919 273.388 851.046 281.008 851.608 291.720 Z"/>
<path fill="#eda87a" fill-rule="evenodd" stroke="none" d="M 857.011 292.063 C 857.230 297.466 863.851 305.087 869.941 307.085 C 874.687 308.647 870.940 299.902 877.561 300.902 C 883.526 301.776 884.619 303.213 882.308 295.499 C 879.872 287.660 874.032 280.571 868.067 279.696 C 859.228 278.353 856.574 284.006 857.011 292.063 Z"/>
</g>
<path fill="#000000" fill-rule="evenodd" stroke="none" d="M 827.130 516.596 C 842.246 480.046 857.362 443.496 872.447 406.916 C 876.680 397.846 887.442 393.916 896.512 398.148 C 905.581 402.381 909.457 413.118 905.279 422.213 C 887.281 457.229 871.017 493.145 852.173 527.713 C 848.792 534.651 840.222 537.079 833.358 533.616 C 827.011 530.460 824.137 523.005 827.130 516.596 Z"/>
<path fill="#fdb686" fill-rule="evenodd" stroke="none" d="M 779.954 625.582 C 779.954 625.582 799.504 586.107 802.658 578.737 C 809.248 563.371 827.486 516.526 827.486 516.526 C 835.650 520.218 843.854 523.861 851.927 527.777 C 851.927 527.777 832.375 558.929 818.273 585.982 C 812.403 597.271 800.347 626.987 797.162 633.546 C 794.882 638.261 789.292 640.354 784.544 638.136 C 779.798 635.950 777.736 630.329 779.954 625.582 Z"/>
<path fill="#ffffff" fill-rule="evenodd" stroke="none" d="M 789.099 604.565 C 795.146 607.376 801.192 610.188 807.239 613.030 C 805.364 617.806 803.490 622.492 801.767 626.483 C 795.327 623.490 788.918 620.467 782.478 617.504 C 784.383 613.604 786.711 609.099 789.099 604.565 Z"/>
<path fill="#000000" fill-rule="evenodd" stroke="none" d="M 784.776 609.916 C 790.944 597.370 797.262 584.279 799.680 579.291 C 808.297 561.454 827.221 516.379 827.221 516.379 C 830.214 509.939 837.740 507.467 844.272 510.182 C 851.308 513.090 855.254 520.969 852.237 527.928 C 852.237 527.928 833.585 559.824 819.815 588.663 C 815.777 597.077 811.320 607.860 806.120 619.862 C 798.985 616.537 791.881 613.211 784.776 609.916 Z"/>
<g id="hand_left">
<path fill="#edad82" fill-rule="evenodd" stroke="none" d="M 786.286 635.793 C 790.251 630.358 795.386 625.617 792.039 622.690 C 789.366 620.351 784.150 621.541 778.850 628.791 C 768.740 642.666 761.619 647.605 760.012 653.536 C 757.737 662.005 754.494 667.638 752.152 674.196 C 750.212 679.731 748.060 684.105 746.562 687.009 C 743.893 692.237 746.227 693.760 748.186 692.748 C 750.145 691.735 753.068 686.303 757.387 678.083 C 761.707 669.864 767.950 659.155 774.657 650.025 C 779.953 642.842 784.267 638.576 786.286 635.793 Z"/>
<path fill="#f5b082" fill-rule="evenodd" stroke="none" d="M 788.534 637.961 C 792.628 632.113 796.134 627.184 793.018 623.415 C 789.887 619.673 784.012 621.601 778.561 629.426 C 768.128 644.368 762.163 650.827 760.698 657.185 C 758.581 666.298 755.290 672.321 753.045 679.384 C 751.153 685.328 749.010 690.054 747.529 693.175 C 744.841 698.809 747.456 700.387 749.554 699.313 C 751.651 698.239 754.582 692.361 758.931 683.534 C 763.281 674.707 769.605 663.176 776.551 653.314 C 781.957 645.568 786.422 640.970 788.534 637.961 Z"/>
<path fill="#fdb686" fill-rule="evenodd" stroke="none" d="M 792.487 639.876 C 796.491 634.187 796.164 627.131 793.018 623.415 C 789.872 619.699 782.379 622.035 778.101 630.243 C 768.988 647.768 766.428 652.189 765.036 658.415 C 763.038 667.318 759.822 673.209 757.666 680.114 C 755.848 685.926 753.764 690.547 752.328 693.589 C 749.728 699.064 752.329 700.669 754.411 699.621 C 756.493 698.574 759.336 692.854 763.540 684.223 C 767.745 675.592 773.932 664.365 780.715 654.792 C 786.029 647.272 790.419 642.806 792.487 639.876 Z"/>
<path fill="#eba67a" fill-rule="evenodd" stroke="none" d="M 780.023 648.816 C 780.092 650.971 780.522 653.226 779.930 655.877 C 780.179 655.497 780.440 655.158 780.689 654.778 C 786.017 647.231 790.434 642.780 792.460 639.861 C 794.178 637.429 787.220 623.236 780.652 634.768 C 777.178 640.932 779.838 642.986 780.023 648.816 Z"/>
<path fill="#fdb686" fill-rule="evenodd" stroke="none" d="M 781.973 634.333 C 783.382 626.105 786.516 622.700 790.533 623.576 C 796.961 624.978 796.264 638.223 795.201 641.094 C 793.275 646.359 790.336 652.684 790.336 656.501 C 790.325 660.277 790.427 669.947 786.618 670.056 C 783.540 670.161 782.900 667.232 783.605 659.024 C 784.814 644.193 780.310 644.119 781.973 634.333 Z"/>
</g>
</g>
</svg>
